<svg xmlns="http://www.w3.org/2000/svg" xmlns:xlink="http://www.w3.org/1999/xlink" width="400" height="180" viewBox="0 0 400 180">
  <defs>
    <linearGradient id="gradient-5" x1="50" y1="50" x2="50" y2="50">
      <stop offset="0.00" stop-color="#f2709c"></stop>
      <stop offset="1.00" stop-color="#ff9472"></stop>
    </linearGradient>
  </defs>
  <rect data-name="background" width="400" height="180" fill="transparent"></rect>
  <g data-name="icon" fill="url(#gradient-5)" data="id:7262146" transform="translate(250,6) scale(1.5125334758016058)">
    <path d="m74.773 57.645c-17.676 5.8398-23.562 11.727-29.402 29.402-0.48047 1.4531-2.5352 1.4531-3.0156 0-5.8398-17.676-11.727-23.562-29.402-29.402-1.4531-0.48047-1.4531-2.5352 0-3.0156 17.676-5.8398 23.562-11.727 29.402-29.402 0.48047-1.4531 2.5352-1.4531 3.0156 0 5.8398 17.676 11.727 23.562 29.402 29.402 1.4531 0.48047 1.4531 2.5352 0 3.0156z"></path>
    <path d="m87.594 28.617c-8.8359 2.918-11.781 5.8633-14.703 14.703-0.23828 0.72656-1.2656 0.72656-1.5078 0-2.918-8.8359-5.8633-11.781-14.703-14.703-0.72656-0.23828-0.72656-1.2656 0-1.5078 8.8359-2.918 11.781-5.8633 14.703-14.703 0.23828-0.72656 1.2656-0.72656 1.5078 0 2.918 8.8359 5.8633 11.781 14.703 14.703 0.72656 0.23828 0.72656 1.2656 0 1.5078z"></path>
    <rect x="8.863578796386719" y="8.861279487609863" width="82.27534484863281" height="82.27554321289062" fill="transparent" pointer-events="all"></rect>
  </g>
  <g data-name="business_name" fill="#3e3e41" data="id:222" transform="translate(9.588566206727076,-14) scale(2.829931644616286)">
    <path d="M33.4,29.4c0.52,0,0.52,1.28,0.04,1.44c-1.16,0.36-2.36,1.52-3.52,4.32l-3.76,9c-0.8,1.88-1.16,2.92-1.4,3.92l-2.32,0.4l-5.04-12.24l-3.32,7.92c-0.8,1.88-1.16,2.92-1.4,3.92l-2.32,0.4l-5.44-13.32c-1.24-3-2.4-4-3.56-4.32c-0.48-0.12-0.48-1.44,0.04-1.44l7.88,0c0.56,0,0.56,1.24,0.04,1.44c-0.84,0.32-0.92,1.64,0.12,4.32l2.96,7.6l3.88-9.28c-0.76-1.72-1.36-2.52-2.64-2.64c-0.48-0.04-0.52-1.44,0.04-1.44l7.64,0c0.56,0,0.56,1.2,0.04,1.44c-0.84,0.4-0.88,1.64,0.16,4.32l2.96,7.56l3.08-7.56c1.16-2.84,1-4.12-0.8-4.32c-0.44-0.04-0.44-1.44,0.04-1.44l6.6,0z M40.8,24.92c-0.88,0-3.04-1.88-3.04-3.04s2.16-3.04,3.04-3.04s3.04,1.88,3.04,3.04s-2.16,3.04-3.04,3.04z M36.44,48c-0.32,0-0.6-1.16-0.28-1.2c1.24-0.16,2.8-0.72,2.8-3.04l0-8.84c0-2.44-0.64-3.04-2.72-3.32c-0.32-0.04-0.2-1.08,0.08-1.16l7.08-1.68c0.4-0.08,0.6,0.2,0.48,0.72c-0.28,1.28-0.64,3.64-0.64,6.24l0,8.04c0,2.32,1.56,2.88,2.8,3.04c0.28,0.04,0.04,1.2-0.28,1.2l-9.32,0z M55.6,48.64c-3.24,0-6.64-1.32-6.2-2.52l0.64-1.68c0.92-2.44,2.56,1.76,7.04,1.76c3.88,0,4.4-2.56,1.32-4.12l-5.24-2.64c-6.12-3.08-4.08-10.76,3.76-10.76c2.96,0,6,1.2,5.52,2.36l-0.68,1.68c-0.96,2.4-2.48-1.56-6.44-1.56c-3.04,0-3.6,2.56-0.8,3.96l5.44,2.76c6.4,3.24,4.24,10.76-4.36,10.76z M83.44,44.92c0.36-0.08,0.68,1,0.44,1.12c-1.56,0.76-4.8,2.6-5.56,2.6c-4.92,0-11.24-2.32-11.24-9.4c0-4.76,2.92-10.56,10.08-10.56c6.04,0,6.8,4.32,6.8,6c0,1.04-0.32,2.6-0.72,3.52l-11.88,0.32c0.76,4.96,4.8,7.04,7.96,7.04c0.36,0,2.08-0.2,4.12-0.64z M75.76,31.24c-3.16,0-4.4,2.16-4.52,5.2l8.68-0.28c0.4-2.16-0.64-4.92-4.16-4.92z"></path>
    <rect x="-1.9951475858688354" y="15.84000015258789" width="88.9583740234375" height="35.79999923706055" fill="transparent" pointer-events="all"></rect>
  </g>
</svg>
